<svg id="Layer_1" data-name="Layer 1" xmlns="http://www.w3.org/2000/svg" viewBox="0 0 765 260"><defs><style>.cls-1,.cls-3,.cls-4,.cls-5,.cls-6,.cls-7,.cls-8{fill:none;}.cls-2{fill:#fff;}.cls-3{stroke:#00d228;}.cls-3,.cls-4,.cls-5,.cls-6,.cls-7,.cls-8{stroke-linecap:round;stroke-miterlimit:10;stroke-width:16.97px;}.cls-4{stroke:#fff000;}.cls-5{stroke:#35ccff;}.cls-6{stroke:#ff9600;}.cls-7{stroke:#ff1e28;}.cls-8{stroke:#fff;}</style></defs><rect class="cls-1" x="53.46" width="658.08" height="57.63"/><rect class="cls-1" x="53.46" y="57.63" width="658.08" height="57.63"/><rect class="cls-1" x="53.46" y="201.71" width="658.08" height="58.29"/><rect class="cls-1" x="53.46" y="144.08" width="658.08" height="57.63"/><rect class="cls-1" x="53.46" y="115.26" width="658.08" height="28.82"/><rect class="cls-1" x="222.7" width="53.46" height="260"/><rect class="cls-1" width="53.46" height="260"/><rect class="cls-1" x="711.54" width="53.46" height="260"/><path class="cls-2" d="M296.24,115.26,275.48,57.63H288l14.17,42.15L316.5,57.63h12.44l-20.76,57.63Z"/><path class="cls-2" d="M325.64,94.52c0-12.35,9.15-21.41,21.91-21.41s21.92,9.06,21.92,21.41-9.15,21.4-21.92,21.4S325.64,106.86,325.64,94.52Zm32.29,0c0-6.92-4.2-11.61-10.38-11.61s-10.37,4.69-10.37,11.61S341.38,106,347.55,106,357.93,101.35,357.93,94.52Z"/><path class="cls-2" d="M381.32,55.41h.42a6.09,6.09,0,0,1,6.09,6.09h0a6.09,6.09,0,0,1-6.09,6.09h-.42a6.09,6.09,0,0,1-6.09-6.09h0A6.09,6.09,0,0,1,381.32,55.41Zm-5.6,59.85V73.77h11.54v41.49Z"/><path class="cls-2" d="M393.51,94.52c0-12.11,8.57-21.41,21.42-21.41,10.87,0,19.52,6.59,20.26,16.22H423.66c-.66-3.71-4.2-6.42-8.4-6.42-6.18,0-9.8,4.85-9.8,11.61s3.7,11.52,10,11.52c4.21,0,7.58-2.55,8.41-6.26h11.69c-1.23,9.23-9.8,16.14-20.59,16.14C402.08,115.92,393.51,106.62,393.51,94.52Z"/><path class="cls-2" d="M480.33,101.18c-1.65,9-9.55,14.74-19.77,14.74-14.09,0-21.33-11-21.33-21.49s6.42-21.32,20.51-21.32c14.66,0,20.51,10.78,20.51,20.25,0,1.57-.08,2.8-.17,3.71H450.26c.83,5.84,4.54,9.47,10.3,9.47,4.61,0,7.66-1.82,8.57-5.36Zm-29.9-11.36H468.8c-.33-4.61-3.54-8.31-9.06-8.31C454.55,81.51,451.42,84.06,450.43,89.82Z"/><path class="cls-2" d="M294.76,201.71V177.83l-19.61-33.75h13.26L301,166.31l12.6-22.23h13.26l-19.69,33.75v23.88Z"/><path class="cls-2" d="M320.37,181c0-12.35,9.14-21.4,21.91-21.4s21.91,9.05,21.91,21.4-9.14,21.41-21.91,21.41S320.37,193.31,320.37,181Zm32.29,0c0-6.91-4.2-11.61-10.38-11.61S331.9,174.05,331.9,181s4.2,11.53,10.38,11.53S352.66,187.8,352.66,181Z"/><path class="cls-2" d="M410.07,160.22v41.49H398.54V196c-2.31,4-6.92,6.42-12.6,6.42-9.31,0-15.41-6.83-15.41-16.3V160.22H382v23.3c0,5,3.3,8.64,8,8.64,5,0,8.57-3.95,8.57-9.22V160.22Z"/><path class="cls-2" d="M445.08,169.77h-6.84c-5.68,0-8.24,4.69-8.24,11.77v20.17H418.47V160.22H430v6.91c2.23-5.19,5.36-6.91,10.38-6.91h4.7Z"/><path class="cls-2" d="M469,201.71V144.08h39.21V154.7H481.32v12.84h21.41v10.71H481.32v23.46Z"/><path class="cls-2" d="M551.91,160.22v41.49H540.38V196c-2.31,4-6.92,6.42-12.61,6.42-9.31,0-15.4-6.83-15.4-16.3V160.22h11.45v23.3c0,5,3.29,8.64,8,8.64,5,0,8.57-3.95,8.57-9.22V160.22Z"/><path class="cls-2" d="M565.66,148h11.45v12.27h11.12v9.55H577.11v15.64c0,4,2.14,5.93,5.85,5.93h5.27v10.37H581.4c-9.56,0-15.74-5.43-15.74-15.07V169.77h-8v-9.55h8Z"/><path class="cls-2" d="M633.62,160.22v41.49H622.09V196c-2.31,4-6.92,6.42-12.61,6.42-9.31,0-15.4-6.83-15.4-16.3V160.22h11.45v23.3c0,5,3.29,8.64,8,8.64,5,0,8.57-3.95,8.57-9.22V160.22Z"/><path class="cls-2" d="M668.62,169.77h-6.83c-5.69,0-8.24,4.69-8.24,11.77v20.17H642V160.22h11.53v6.91c2.22-5.19,5.35-6.91,10.38-6.91h4.69Z"/><path class="cls-2" d="M711.54,187.63c-1.65,9-9.56,14.74-19.77,14.74-14.09,0-21.34-11-21.34-21.49s6.43-21.32,20.51-21.32c14.67,0,20.52,10.78,20.52,20.25,0,1.56-.09,2.8-.17,3.71H681.47c.83,5.84,4.53,9.46,10.3,9.46,4.61,0,7.66-1.81,8.57-5.35Zm-29.9-11.36H700a8.6,8.6,0,0,0-9.07-8.32C685.75,168,682.62,170.51,681.64,176.27Z"/><line class="cls-3" x1="188.85" y1="65.49" x2="188.85" y2="194.18"/><line class="cls-4" x1="155" y1="35.95" x2="155" y2="223.72"/><line class="cls-5" x1="222.7" y1="94.52" x2="222.7" y2="165.15"/><line class="cls-6" x1="121.16" y1="65.49" x2="121.16" y2="194.18"/><line class="cls-7" x1="87.31" y1="94.47" x2="87.31" y2="165.2"/><line class="cls-8" x1="53.46" y1="121.59" x2="53.46" y2="138.08"/></svg>